<?xml version="1.0" standalone="no"?><!DOCTYPE svg PUBLIC "-//W3C//DTD SVG 1.1//EN" "http://www.w3.org/Graphics/SVG/1.1/DTD/svg11.dtd"><svg t="1676960428898" class="icon" viewBox="0 0 1024 1024" version="1.1" xmlns="http://www.w3.org/2000/svg" p-id="18426" xmlns:xlink="http://www.w3.org/1999/xlink" width="200" height="200"><path d="M873.450667 266.474667a199.381333 199.381333 0 0 1 134.805333 188.629333v11.733333a199.296 199.296 0 0 1-199.317333 199.296H199.296A199.296 199.296 0 0 1 0 466.837333v-11.733333a199.466667 199.466667 0 0 1 118.293333-182.165333 152.426667 152.426667 0 0 1 207.786667-123.562667A304.725333 304.725333 0 0 1 574.464 21.333333c147.925333 0 271.232 105.386667 298.986667 245.141334z m0 0a199.04 199.04 0 0 0-64.512-10.666667v70.336z m-577.024-53.12a81.28 81.28 0 0 1 6.144 2.432l28.266666-64.426667a151.68 151.68 0 0 0-4.757333-1.984z" fill="#4657FF" opacity=".2" p-id="18427"></path><path d="M516.736 840.533333a50.410667 50.410667 0 1 1 0-100.821333 50.410667 50.410667 0 0 1 0 100.821333z m252.053333 0a50.410667 50.410667 0 1 1 0-100.821333 50.410667 50.410667 0 0 1 0 100.821333z m-504.106666 0a50.410667 50.410667 0 1 1 0-100.821333 50.410667 50.410667 0 0 1 0 100.821333z m126.016 138.624a50.410667 50.410667 0 1 1 0-100.821333 50.410667 50.410667 0 0 1 0 100.821333z m252.053333 0a50.410667 50.410667 0 1 1 0-100.821333 50.410667 50.410667 0 0 1 0 100.821333z m230.698667-713.877333c78.421333 26.666667 134.805333 100.629333 134.805333 187.712v11.669333c0 109.525333-89.237333 198.314667-199.317333 198.314667H199.296C89.216 662.976 0 574.186667 0 464.661333v-11.669333c0-80.384 48.277333-150.272 118.293333-181.269333 8.917333-75.306667 73.28-133.717333 151.36-133.717334a152.746667 152.746667 0 0 1 56.426667 10.730667A305.194667 305.194667 0 0 1 574.464 21.333333c147.925333 0 271.232 104.853333 298.986667 243.946667z m-64.512 59.370667c0-128.853333-104.96-233.322667-234.453334-233.322667a234.56 234.56 0 0 0-215.466666 141.12c-0.64 1.472-1.493333 3.157333-2.218667 4.544l-0.085333 0.149333-60.288-24.704a82.261333 82.261333 0 0 0-26.773334-4.437333c-45.290667 0-82.005333 36.48-82.069333 81.536l2.496 35.434667a130.56 130.56 0 0 0-4.053333 0.362666c-65.429333 6.634667-115.690667 61.696-115.690667 127.658667v11.669333c0 70.869333 57.749333 128.32 128.96 128.32H808.96c71.232 0 128.96-57.450667 128.96-128.32v-11.669333c0-70.869333-57.728-128.341333-128.96-128.341333z" fill="#000000" p-id="18428"></path></svg>