<?xml version="1.0" standalone="no"?><!DOCTYPE svg PUBLIC "-//W3C//DTD SVG 1.1//EN" "http://www.w3.org/Graphics/SVG/1.1/DTD/svg11.dtd"><svg t="1676602995047" class="icon" viewBox="0 0 1024 1024" version="1.1" xmlns="http://www.w3.org/2000/svg" p-id="3589" xmlns:xlink="http://www.w3.org/1999/xlink" width="200" height="200"><path d="M214.986667 515.786667a5.333333 5.333333 0 0 1 0-7.573334l354.506666-354.453333a5.333333 5.333333 0 0 0 0-7.573333l-45.226666-45.226667a5.333333 5.333333 0 0 0-7.573334 0L109.386667 508.213333a5.333333 5.333333 0 0 0 0 7.573334l407.306666 407.253333a5.333333 5.333333 0 0 0 7.573334 0l45.226666-45.226667a5.333333 5.333333 0 0 0 0-7.573333z" p-id="3590"></path><path d="M560 515.786667a5.333333 5.333333 0 0 1 0-7.573334l354.453333-354.453333a5.333333 5.333333 0 0 0 0-7.573333L869.333333 100.96a5.333333 5.333333 0 0 0-7.52 0L454.506667 508.213333a5.333333 5.333333 0 0 0 0 7.573334l407.306666 407.253333a5.333333 5.333333 0 0 0 7.52 0l45.226667-45.226667a5.333333 5.333333 0 0 0 0-7.573333z" p-id="3591"></path></svg>