<?xml version="1.0" standalone="no"?><!DOCTYPE svg PUBLIC "-//W3C//DTD SVG 1.1//EN" "http://www.w3.org/Graphics/SVG/1.1/DTD/svg11.dtd"><svg t="1676959928964" class="icon" viewBox="0 0 1024 1024" version="1.1" xmlns="http://www.w3.org/2000/svg" p-id="8027" xmlns:xlink="http://www.w3.org/1999/xlink" width="200" height="200"><path d="M708.289844 352.282726h104.794481c89.96085 0 162.914177 72.921357 162.914176 162.946146 0 44.980425-18.222347 85.708969-47.729761 115.216384-29.475446 29.475446-70.20399 47.729762-115.184415 47.729762h-201.37292v0.031969l-98.432644-57.480316 179.026568-192.837189-343.123599 192.837189 98.368706 57.448347h-229.249915c-89.992819 0-162.978115-72.985295-162.978115-162.946146 0-45.012394 18.254316-85.740938 47.729762-115.248353 29.507415-29.475446 70.267928-47.697793 115.248353-47.697793h4.891262c0-133.982205 108.598795-242.549031 242.549031-242.549031 133.982205 0 242.549031 108.566826 242.54903 242.549031z" fill="#5FCEFF" p-id="8028"></path><path d="M692.305329 427.889482l-179.026568 192.837189 98.432644 57.480316 80.593924 47.058412-343.123599 190.407543 179.026568-190.407543-80.625893-47.090381h-0.031969l-98.368706-57.448347z" fill="#FFB578" p-id="8029"></path><path d="M708.289844 374.661047a22.378321 22.378321 0 0 1-22.378321-22.378321c0-121.402391-98.771515-220.17071-220.173906-220.17071s-220.17071 98.768318-220.17071 220.17071a22.378321 22.378321 0 1 1-44.756642 0c0-146.082483 118.844869-264.927352 264.927352-264.927352 146.082483 0 264.930549 118.844869 264.930548 264.927352a22.378321 22.378321 0 0 1-22.378321 22.378321z" fill="#4F46A3" p-id="8030"></path><path d="M447.550436 700.553339h-229.249915c-102.204989 0-185.356436-83.138659-185.356436-185.327664 0-49.481665 19.274128-96.025375 54.27702-131.063432 35.03486-34.996497 81.581768-54.261035 131.079416-54.261035a22.378321 22.378321 0 1 1 0 44.756642c-37.55402 0-72.863813 14.613044-99.433274 41.153733-26.540689 26.569461-41.16652 61.879254-41.16652 99.414092 0 77.508913 63.071699 140.571022 140.599794 140.571022h229.249915a22.378321 22.378321 0 1 1 0 44.756642zM813.084325 700.553339h-201.369724a22.378321 22.378321 0 1 1 0-44.756642h201.369724c37.518854 0 72.806269-14.622634 99.359745-41.179308 26.553476-26.547083 41.176111-61.847285 41.17611-99.391714 0-77.508913-63.046124-140.567825-140.535855-140.567825a22.378321 22.378321 0 1 1 0-44.756642c102.169823 0 185.292498 83.135463 185.292497 185.324467 0 49.500846-19.277325 96.038163-54.283412 131.041054-35.009285 35.009285-81.537011 54.28661-131.009085 54.28661z" fill="#4F46A3" p-id="8031"></path><path d="M813.084325 374.661047h-179.186414a22.378321 22.378321 0 1 1 0-44.756642h179.186414a22.378321 22.378321 0 1 1 0 44.756642zM349.194518 938.051263a22.381518 22.381518 0 0 1-16.316993-37.707471l159.774818-169.928182-55.642097-32.496519a24.417945 24.417945 0 0 1-0.744878-0.415598l-98.368705-57.451543a22.387912 22.387912 0 0 1 0.31969-38.835978l343.126796-192.837189a22.381518 22.381518 0 0 1 27.36549 34.737548l-160.027374 172.367419 154.909132 90.456371a22.378321 22.378321 0 0 1-0.425188 38.893521l-343.126796 190.407543a22.330367 22.330367 0 0 1-10.843895 2.810078z m108.928076-279.613924c0.252555 0.13427 0.498717 0.271737 0.744878 0.415597l80.625894 47.087185a22.378321 22.378321 0 0 1 5.015941 34.654428l-80.785739 85.919965 183.351978-101.741438-145.085049-84.721126a22.381518 22.381518 0 0 1-5.118242-34.552128l81.74481-88.052299-184.429334 103.653186 63.934863 37.33663z" fill="#4F46A3" p-id="8032"></path></svg>