<?xml version="1.0" standalone="no"?><!DOCTYPE svg PUBLIC "-//W3C//DTD SVG 1.1//EN" "http://www.w3.org/Graphics/SVG/1.1/DTD/svg11.dtd"><svg t="1676959746413" class="icon" viewBox="0 0 1024 1024" version="1.1" xmlns="http://www.w3.org/2000/svg" p-id="4835" xmlns:xlink="http://www.w3.org/1999/xlink" width="200" height="200"><path d="M554.435652 554.435652m-277.217826 0a277.217826 277.217826 0 1 0 554.435652 0 277.217826 277.217826 0 1 0-554.435652 0Z" fill="#FFE97C" p-id="4836"></path><path d="M353.303457 332.618742c25.930529-28.446814 108.114952-79.241649 115.834402-42.009163 6.695877 32.199917-71.351603 89.520033-106.622241 103.125032-42.990087 16.63307-51.136027-15.05506-9.212161-61.115869z" fill="#FFB28E" p-id="4837"></path><path d="M516.179592 170.638234l4.392836 0.085298 4.392836 0.127947 4.350188 0.170595 4.350187 0.255894 4.350188 0.298542 4.307538 0.38384 4.307539 0.38384 4.307538 0.469138 4.26489 0.511787 4.26489 0.597084 4.264889 0.597085 4.222241 0.682382 4.179592 0.725031 4.222241 0.76768 4.136942 0.852978 4.179592 0.852978 4.136943 0.938276 4.094294 0.980925 4.094294 1.023573 4.094294 1.066222 4.051646 1.151521 4.051645 1.15152 4.008996 1.236818 4.008996 1.279467 3.966348 1.322116 3.923698 1.364764 3.923698 1.407414 3.923699 1.450062 3.881049 1.492712 3.88105 1.578009 3.838401 1.578009 3.795751 1.663307 3.795752 1.663307 3.753103 1.748605 3.753103 1.748604 3.710454 1.833903 3.710454 1.876551 3.667805 1.876552 3.625156 1.961849 3.625156 2.004498 3.582508 2.047147 3.539858 2.047147 3.539858 2.132445 3.49721 2.132445 3.497209 2.217742 3.411912 2.260392 3.454561 2.260391 3.369263 2.303041 3.369262 2.388338 3.326614 2.388338 3.283965 2.430987 3.283965 2.473636 3.241316 2.516285 3.198668 2.558934 3.198667 2.601583 3.113369 2.601582 3.11337 2.686881 3.07072 2.68688 3.070721 2.72953 3.028071 2.772178 2.942774 2.814827 2.942774 2.857476 2.942774 2.857476 2.857476 2.942774 2.857476 2.942774 2.814827 2.942774 2.772178 3.028071 2.72953 3.070721 2.68688 3.07072 2.686881 3.11337 2.601582 3.113369 2.601583 3.198667 2.558934 3.198668 2.516285 3.241316 2.473636 3.283965 2.430987 3.283965 2.388338 3.326614 2.388338 3.369262 2.303041 3.369263 2.260391 3.454561 2.260392 3.411912 2.217742 3.497209 2.132445 3.49721 2.132445 3.539858 2.047147 3.539858 2.047147 3.582508 2.004498 3.625156 1.961849 3.625156 1.876552 3.667805 1.876551 3.710454 1.833903 3.710454 1.748604 3.753103 1.748605 3.753103 1.663307 3.795752 1.663307 3.795751 1.578009 3.838401 1.578009 3.88105 1.492712 3.881049 1.450062 3.923699 1.407414 3.923698 1.364765 3.923699 1.322115 3.966347 1.279467 4.008996 1.236818 4.008996 1.15152 4.051646 1.151521 4.051645 1.066222 4.094294 1.023574 4.094294 0.980924 4.094294 0.938276 4.136943 0.852978 4.179592 0.852978 4.136943 0.76768 4.22224 0.725031 4.179592 0.682382 4.222241 0.597085 4.264889 0.597085 4.26489 0.511786 4.26489 0.469138 4.307538 0.38384 4.307539 0.38384 4.307538 0.298543 4.350188 0.255893 4.350187 0.170595 4.350188 0.127947 4.392836 0.085298 4.392836L852.977926 511.786756l-0.042649 4.392836-0.085298 4.392836-0.127947 4.392836-0.170595 4.350188-0.255893 4.350187-0.298543 4.350188-0.38384 4.307538-0.38384 4.307539-0.469138 4.307538-0.511786 4.26489-0.597085 4.26489-0.597085 4.264889-0.682382 4.222241-0.725031 4.179592-0.76768 4.222241-0.852978 4.136942-0.852978 4.179592-0.938276 4.136943-0.980924 4.094294-1.023574 4.094294-1.066222 4.094294-1.151521 4.051646-1.15152 4.051645-1.236818 4.008996-1.279467 4.008996-1.322115 3.966348-1.364765 3.923698-1.407414 3.923698-1.450062 3.923699-1.492712 3.881049-1.578009 3.88105-1.578009 3.838401-1.663307 3.795751-1.663307 3.795752-1.748605 3.753103-1.748604 3.753103-1.833903 3.710454-1.876551 3.710454-1.876552 3.667805-1.961849 3.625156-2.004498 3.625156-2.047147 3.582508-2.047147 3.539858-2.132445 3.539858-2.132445 3.49721-2.217742 3.497209-2.260392 3.411912-2.260391 3.454561-2.303041 3.369263-2.388338 3.369262-2.388338 3.326614-2.430987 3.283965-2.473636 3.283965-2.516285 3.241316-2.558934 3.198668-2.601583 3.198667-2.601582 3.113369-2.686881 3.11337-2.68688 3.07072-2.72953 3.070721-2.772178 3.028071-2.814827 2.942774-2.857476 2.942774-2.857476 2.942774-2.942774 2.857476-2.942774 2.857476-2.942774 2.814827-3.028071 2.772178-3.070721 2.72953-3.07072 2.68688-3.11337 2.686881-3.113369 2.601582-3.198667 2.601583-3.198668 2.558934-3.241316 2.516285-3.283965 2.473636-3.283965 2.430987-3.326614 2.388338-3.369262 2.388338-3.369263 2.303041-3.454561 2.260391-3.411912 2.260392-3.497209 2.217742-3.49721 2.132445-3.539858 2.132445-3.539858 2.047147-3.582508 2.047147-3.625156 2.004498-3.625156 1.961849-3.667805 1.876552-3.710454 1.876551-3.710454 1.833903-3.753103 1.748604-3.753103 1.748605-3.795752 1.663307-3.795751 1.663307-3.838401 1.578009-3.88105 1.578009-3.881049 1.492712-3.923699 1.450062-3.923698 1.407414-3.923698 1.364765-3.966348 1.322115-4.008996 1.279467-4.008996 1.236818-4.051645 1.15152-4.051646 1.151521-4.094294 1.066222-4.094294 1.023574-4.094294 0.980924-4.136943 0.938276-4.179592 0.852978-4.136942 0.852978-4.222241 0.76768-4.179592 0.725031-4.222241 0.682382-4.264889 0.597085-4.26489 0.597085-4.26489 0.511786-4.307538 0.469138-4.307539 0.38384-4.307538 0.38384-4.350188 0.298543-4.350187 0.255893-4.350188 0.170595-4.392836 0.127947-4.392836 0.085298L511.786756 852.977926l-4.392837-0.042649-4.392836-0.085298-4.392836-0.127947-4.350188-0.170595-4.350187-0.255893-4.350188-0.298543-4.307538-0.38384-4.307539-0.38384-4.307538-0.469138-4.26489-0.511786-4.26489-0.597085-4.264889-0.597085-4.222241-0.682382-4.179592-0.725031-4.22224-0.76768-4.136943-0.852978-4.179592-0.852978-4.136943-0.938276-4.094294-0.980924-4.094294-1.023574-4.094294-1.066222-4.051645-1.151521-4.051646-1.15152-4.008996-1.236818-4.008996-1.279467-3.966347-1.322115-3.923699-1.364765-3.923698-1.407414-3.923699-1.450062-3.881049-1.492712-3.88105-1.578009-3.838401-1.578009-3.795751-1.663307-3.795752-1.663307-3.753103-1.748605-3.753103-1.748604-3.710454-1.833903-3.710454-1.876551-3.667805-1.876552-3.625156-1.961849-3.625156-2.004498-3.582508-2.047147-3.539858-2.047147-3.539858-2.132445-3.49721-2.132445-3.497209-2.217742-3.411912-2.260392-3.454561-2.260391-3.369263-2.303041-3.369262-2.388338-3.326614-2.388338-3.283965-2.430987-3.283965-2.473636-3.241316-2.516285-3.198668-2.558934-3.198667-2.601583-3.113369-2.601582-3.11337-2.686881-3.07072-2.68688-3.070721-2.72953-3.028071-2.772178-2.942774-2.814827-2.942774-2.857476-2.942774-2.857476-2.857476-2.942774-2.857476-2.942774-2.814827-2.942774-2.772178-3.028071-2.72953-3.070721-2.68688-3.07072-2.686881-3.11337-2.601582-3.113369-2.601583-3.198667-2.558934-3.198668-2.516285-3.241316-2.473636-3.283965-2.430987-3.283965-2.388338-3.326614-2.388338-3.369262-2.303041-3.369263-2.260391-3.454561-2.260392-3.411912-2.217742-3.497209-2.132445-3.49721-2.132445-3.539858-2.047147-3.539858-2.047147-3.582508-2.004498-3.625156-1.961849-3.625156-1.876552-3.667805-1.876551-3.710454-1.833903-3.710454-1.748604-3.753103-1.748605-3.753103-1.663307-3.795752-1.663307-3.795751-1.578009-3.838401-1.578009-3.88105-1.492712-3.881049-1.450062-3.923699-1.407414-3.923698-1.364764-3.923698-1.322116-3.966348-1.279467-4.008996-1.236818-4.008996-1.15152-4.051645-1.151521-4.051646-1.066222-4.094294-1.023573-4.094294-0.980925-4.094294-0.938276-4.136943-0.852978-4.179592-0.852978-4.136942-0.76768-4.222241-0.725031-4.179592-0.682382-4.222241-0.597085-4.264889-0.597084-4.26489-0.511787-4.26489-0.469138-4.307538-0.38384-4.307539-0.38384-4.307538-0.298542-4.350188-0.255894-4.350187-0.170595-4.350188-0.127947-4.392836-0.085298-4.392836L170.595585 511.786756l0.042649-4.392837 0.085298-4.392836 0.127947-4.392836 0.170595-4.350188 0.255894-4.350187 0.298542-4.350188 0.38384-4.307538 0.38384-4.307539 0.469138-4.307538 0.511787-4.26489 0.597084-4.26489 0.597085-4.264889 0.682382-4.222241 0.725031-4.179592 0.76768-4.22224 0.852978-4.136943 0.852978-4.179592 0.938276-4.136943 0.980925-4.094294 1.023573-4.094294 1.066222-4.094294 1.151521-4.051645 1.15152-4.051646 1.236818-4.008996 1.279467-4.008996 1.322116-3.966347 1.364764-3.923699 1.407414-3.923698 1.450062-3.923699 1.492712-3.881049 1.578009-3.88105 1.578009-3.838401 1.663307-3.795751 1.663307-3.795752 1.748605-3.753103 1.748604-3.753103 1.833903-3.710454 1.876551-3.710454 1.876552-3.667805 1.961849-3.625156 2.004498-3.625156 2.047147-3.582508 2.047147-3.539858 2.132445-3.539858 2.132445-3.49721 2.217742-3.497209 2.260392-3.411912 2.260391-3.454561 2.303041-3.369263 2.388338-3.369262 2.388338-3.326614 2.430987-3.283965 2.473636-3.283965 2.516285-3.241316 2.558934-3.198668 2.601583-3.198667 2.601582-3.113369 2.686881-3.11337 2.68688-3.07072 2.72953-3.070721 2.772178-3.028071 2.814827-2.942774 2.857476-2.942774 2.857476-2.942774 2.942774-2.857476 2.942774-2.857476 2.942774-2.814827 3.028071-2.772178 3.070721-2.72953 3.07072-2.68688 3.11337-2.686881 3.113369-2.601582 3.198667-2.601583 3.198668-2.558934 3.241316-2.516285 3.283965-2.473636 3.283965-2.430987 3.326614-2.388338 3.369262-2.388338 3.369263-2.303041 3.454561-2.260391 3.411912-2.260392 3.497209-2.217742 3.49721-2.132445 3.539858-2.132445 3.539858-2.047147 3.582508-2.047147 3.625156-2.004498 3.625156-1.961849 3.667805-1.876552 3.710454-1.876551 3.710454-1.833903 3.753103-1.748604 3.753103-1.748605 3.795752-1.663307 3.795751-1.663307 3.838401-1.578009 3.88105-1.578009 3.881049-1.492712 3.923699-1.450062 3.923698-1.407414 3.923699-1.364764 3.966347-1.322116 4.008996-1.279467 4.008996-1.236818 4.051646-1.15152 4.051645-1.151521 4.094294-1.066222 4.094294-1.023573 4.094294-0.980925 4.136943-0.938276 4.179592-0.852978 4.136943-0.852978 4.22224-0.76768 4.179592-0.725031 4.222241-0.682382 4.264889-0.597085 4.26489-0.597084 4.26489-0.511787 4.307538-0.469138 4.307539-0.38384 4.307538-0.38384 4.350188-0.298542 4.350187-0.255894 4.350188-0.170595 4.392836-0.127947 4.392836-0.085298L511.786756 170.595585l4.392836 0.042649z m-8.273886 42.648896l-3.838401 0.042649-3.8384 0.127947-3.838401 0.170596-3.795752 0.213244-3.795752 0.255893-3.795751 0.341192-3.753103 0.341191-3.753103 0.426489-3.753103 0.426489-3.710454 0.511786-3.710454 0.554436-3.710454 0.597085-3.667805 0.597084-3.667805 0.682383-3.667805 0.725031-3.625156 0.76768-3.625157 0.810329-3.582507 0.852978-3.582507 0.895627-3.539858 0.980924-3.582508 0.980925-3.497209 1.023573-3.539859 1.066223-3.45456 1.108871-3.49721 1.15152-3.45456 1.194169-3.411912 1.236818-3.411912 1.279467-3.411911 1.279467-3.369263 1.364765-3.369263 1.407413-3.326614 1.450063-3.326614 1.450062-3.283965 1.535361-3.283965 1.53536-3.241316 1.578009-3.241316 1.663307-3.198667 1.663307-3.156019 1.705956-3.198667 1.748605-3.113369 1.748604-3.11337 1.833903-3.113369 1.833902-3.028072 1.919201-3.07072 1.9192-2.985423 1.961849-3.028072 2.004498-2.942774 2.004499-2.942773 2.089795-2.942774 2.089796-2.857476 2.132445-2.857476 2.175094-2.857476 2.175094-2.814828 2.260391-2.772178 2.260392-2.729529 2.30304-2.72953 2.345689-2.729529 2.34569-2.644232 2.388338-2.644231 2.430987-2.601583 2.473636-2.601582 2.473636-2.558934 2.516285-2.516285 2.558934-2.473636 2.601582-2.473636 2.601583-2.430987 2.644231-2.388338 2.644232-2.34569 2.729529-2.345689 2.72953-2.30304 2.729529-2.260392 2.772178-2.260391 2.814828-2.175094 2.857476-2.175094 2.857476-2.132445 2.857476-2.089796 2.942774-2.089795 2.942773-2.004499 2.942774-2.004498 3.028072-1.961849 2.985423-1.9192 3.07072-1.919201 3.028072-1.833902 3.113369-1.833903 3.11337-1.748604 3.113369-1.748605 3.198667-1.705956 3.156019-1.663307 3.198667-1.663307 3.241316-1.578009 3.241316-1.53536 3.283965-1.535361 3.283965-1.450062 3.326614-1.450063 3.326614-1.407413 3.369263-1.364765 3.369263-1.279467 3.411911-1.279467 3.411912-1.236818 3.411912-1.194169 3.45456-1.15152 3.49721-1.108871 3.45456-1.066223 3.539859-1.023573 3.497209-0.980925 3.582508-0.980924 3.539858-0.895627 3.582507-0.852978 3.582507-0.810329 3.625157-0.76768 3.625156-0.725031 3.667805-0.682383 3.667805-0.597084 3.667805-0.597085 3.710454-0.554436 3.710454-0.511786 3.710454-0.426489 3.753103-0.426489 3.753103-0.341191 3.753103-0.341192 3.795751-0.255893 3.795752-0.213244 3.795752-0.170596 3.838401-0.127947 3.8384-0.042649 3.838401L213.244481 511.786756l0.042649 3.881049 0.042649 3.838401 0.127947 3.8384 0.170596 3.838401 0.213244 3.795752 0.255893 3.795752 0.341192 3.795751 0.341191 3.753103 0.426489 3.753103 0.426489 3.753103 0.511786 3.710454 0.554436 3.710454 0.597085 3.710454 0.597084 3.667805 0.682383 3.667805 0.725031 3.667805 0.76768 3.625156 0.810329 3.625157 0.852978 3.582507 0.895627 3.582507 0.980924 3.539859 0.980925 3.582507 1.023573 3.497209 1.066223 3.539859 1.108871 3.45456 1.15152 3.49721 1.194169 3.45456 1.236818 3.411912 1.279467 3.411912 1.279467 3.411912 1.364765 3.369262 1.407413 3.369263 1.450063 3.326614 1.450062 3.326614 1.535361 3.283965 1.53536 3.283965 1.578009 3.241316 1.663307 3.241316 1.663307 3.198667 1.705956 3.156019 1.748605 3.198667 1.748604 3.113369 1.833903 3.11337 1.833902 3.113369 1.919201 3.028072 1.9192 3.07072 1.961849 2.985423 2.004498 3.028072 2.004499 2.942774 2.089795 2.942774 2.089796 2.942773 2.132445 2.857476 2.175094 2.857476 2.175094 2.857477 2.260391 2.814827 2.260392 2.772178 2.30304 2.729529 2.345689 2.72953 2.34569 2.729529 2.388338 2.644232 2.430987 2.644231 2.473636 2.601583 2.473636 2.601582 2.516285 2.558934 2.558934 2.516285 2.601582 2.473636 2.601583 2.473636 2.644231 2.430987 2.644232 2.388338 2.729529 2.34569 2.72953 2.345689 2.729529 2.30304 2.772178 2.260392 2.814828 2.260391 2.857476 2.175094 2.857476 2.175094 2.857476 2.132445 2.942774 2.089796 2.942773 2.089795 2.942774 2.004499 3.028072 2.004498 2.985423 1.961849 3.07072 1.9192 3.028072 1.919201 3.113369 1.833902 3.11337 1.833903 3.113369 1.748604 3.198667 1.748605 3.156019 1.705956 3.198667 1.663307 3.241316 1.663307 3.241316 1.578009 3.283965 1.53536 3.283965 1.535361 3.326614 1.450062 3.326614 1.450063 3.369263 1.407413 3.369263 1.364765 3.411911 1.279467 3.411912 1.279467 3.411912 1.236818 3.45456 1.194169 3.49721 1.15152 3.45456 1.108871 3.539859 1.066223 3.497209 1.023573 3.582508 0.980925 3.539858 0.980924 3.582507 0.895627 3.582507 0.852978 3.625157 0.810329 3.625156 0.76768 3.667805 0.725032 3.667805 0.682382 3.667805 0.597084 3.710454 0.597085 3.710454 0.554436 3.710454 0.511786 3.753103 0.426489 3.753103 0.426489 3.753103 0.341191 3.795751 0.341192 3.795752 0.255893 3.795752 0.213245 3.838401 0.170595 3.8384 0.127947 3.838401 0.042649L511.786756 810.32903l3.881049-0.042649 3.838401-0.042649 3.8384-0.127947 3.838401-0.170595 3.795752-0.213245 3.795752-0.255893 3.795751-0.341192 3.753103-0.341191 3.753103-0.426489 3.753103-0.426489 3.710454-0.511786 3.710454-0.554436 3.710454-0.597085 3.667805-0.597084 3.667805-0.682382 3.667805-0.725032 3.625156-0.76768 3.625157-0.810329 3.582507-0.852978 3.582507-0.895627 3.539859-0.980924 3.582507-0.980925 3.497209-1.023573 3.539859-1.066223 3.45456-1.108871 3.49721-1.15152 3.45456-1.194169 3.411912-1.236818 3.411912-1.279467 3.411912-1.279467 3.369262-1.364765 3.369263-1.407413 3.326614-1.450063 3.326614-1.450062 3.283965-1.535361 3.283965-1.53536 3.241316-1.578009 3.241316-1.663307 3.198667-1.663307 3.156019-1.705956 3.198667-1.748605 3.113369-1.748604 3.11337-1.833903 3.113369-1.833902 3.028072-1.919201 3.07072-1.9192 2.985423-1.961849 3.028072-2.004498 2.942774-2.004499 2.942774-2.089795 2.942773-2.089796 2.857476-2.132445 2.857476-2.175094 2.857477-2.175094 2.814827-2.260391 2.772178-2.260392 2.729529-2.30304 2.72953-2.345689 2.729529-2.34569 2.644232-2.388338 2.644231-2.430987 2.601583-2.473636 2.601582-2.473636 2.558934-2.516285 2.516285-2.558934 2.473636-2.601582 2.473636-2.601583 2.430987-2.644231 2.388338-2.644232 2.34569-2.729529 2.345689-2.72953 2.30304-2.729529 2.260392-2.772178 2.260391-2.814827 2.175094-2.857477 2.175094-2.857476 2.132445-2.857476 2.089796-2.942773 2.089795-2.942774 2.004499-2.942774 2.004498-3.028072 1.961849-2.985423 1.9192-3.07072 1.919201-3.028072 1.833902-3.113369 1.833903-3.11337 1.748604-3.113369 1.748605-3.198667 1.705956-3.156019 1.663307-3.198667 1.663307-3.241316 1.578009-3.241316 1.53536-3.283965 1.535361-3.283965 1.450062-3.326614 1.450063-3.326614 1.407413-3.369263 1.364765-3.369262 1.279467-3.411912 1.279467-3.411912 1.236818-3.411912 1.194169-3.45456 1.15152-3.49721 1.108871-3.45456 1.066223-3.539859 1.023573-3.497209 0.980925-3.582507 0.980924-3.539859 0.895627-3.582507 0.852978-3.582507 0.810329-3.625157 0.76768-3.625156 0.725032-3.667805 0.682382-3.667805 0.597084-3.667805 0.597085-3.710454 0.554436-3.710454 0.511786-3.710454 0.426489-3.753103 0.426489-3.753103 0.341191-3.753103 0.341192-3.795751 0.255893-3.795752 0.213245-3.795752 0.170595-3.838401 0.127947-3.8384 0.042649-3.838401L810.32903 511.786756l-0.042649-3.88105-0.042649-3.838401-0.127947-3.8384-0.170595-3.838401-0.213245-3.795752-0.255893-3.795752-0.341192-3.795751-0.341191-3.753103-0.426489-3.753103-0.426489-3.753103-0.511786-3.710454-0.554436-3.710454-0.597085-3.710454-0.597084-3.667805-0.682382-3.667805-0.725032-3.667805-0.76768-3.625156-0.810329-3.625157-0.852978-3.582507-0.895627-3.582507-0.980924-3.539858-0.980925-3.582508-1.023573-3.497209-1.066223-3.539859-1.108871-3.45456-1.15152-3.49721-1.194169-3.45456-1.236818-3.411912-1.279467-3.411912-1.279467-3.411911-1.364765-3.369263-1.407413-3.369263-1.450063-3.326614-1.450062-3.326614-1.535361-3.283965-1.53536-3.283965-1.578009-3.241316-1.663307-3.241316-1.663307-3.198667-1.705956-3.156019-1.748605-3.198667-1.748604-3.113369-1.833903-3.11337-1.833902-3.113369-1.919201-3.028072-1.9192-3.07072-1.961849-2.985423-2.004498-3.028072-2.004499-2.942774-2.089795-2.942773-2.089796-2.942774-2.132445-2.857476-2.175094-2.857476-2.175094-2.857476-2.260391-2.814828-2.260392-2.772178-2.30304-2.729529-2.345689-2.72953-2.34569-2.729529-2.388338-2.644232-2.430987-2.644231-2.473636-2.601583-2.473636-2.601582-2.516285-2.558934-2.558934-2.516285-2.601582-2.473636-2.601583-2.473636-2.644231-2.430987-2.644232-2.388338-2.729529-2.34569-2.72953-2.345689-2.729529-2.30304-2.772178-2.260392-2.814827-2.260391-2.857477-2.175094-2.857476-2.175094-2.857476-2.132445-2.942773-2.089796-2.942774-2.089795-2.942774-2.004499-3.028072-2.004498-2.985423-1.961849-3.07072-1.9192-3.028072-1.919201-3.113369-1.833902-3.11337-1.833903-3.113369-1.748604-3.198667-1.748605-3.156019-1.705956-3.198667-1.663307-3.241316-1.663307-3.241316-1.578009-3.283965-1.53536-3.283965-1.535361-3.326614-1.450062-3.326614-1.450063-3.369263-1.407413-3.369262-1.364765-3.411912-1.279467-3.411912-1.279467-3.411912-1.236818-3.45456-1.194169-3.49721-1.15152-3.45456-1.108871-3.539859-1.066223-3.497209-1.023573-3.582507-0.980925-3.539859-0.980924-3.582507-0.895627-3.582507-0.852978-3.625157-0.810329-3.625156-0.76768-3.667805-0.725031-3.667805-0.682383-3.667805-0.597084-3.710454-0.597085-3.710454-0.554436-3.710454-0.511786-3.753103-0.426489-3.753103-0.426489-3.753103-0.341191-3.795751-0.341192-3.795752-0.255893-3.795752-0.213244-3.838401-0.170596-3.8384-0.127947-3.838401-0.042649L511.786756 213.244481l-3.88105 0.042649z" fill="#FFB28E" p-id="4838"></path><path d="M490.462307 1001.737276c0 12.069638 9.766597 21.836235 21.836235 21.836235h0.042649a20.599417 20.599417 0 0 0 14.67122-6.098792 20.599417 20.599417 0 0 0 6.098793-14.67122v-42.691546a21.836235 21.836235 0 0 0-21.836235-21.836235h-0.042649a20.599417 20.599417 0 0 0-14.67122 6.098793 20.599417 20.599417 0 0 0-6.098793 14.67122v42.691545zM150.252062 843.16868c-8.529779 8.529779-8.529779 22.348022 0 30.877801h0.042649a20.599417 20.599417 0 0 0 29.385089 0l30.15277-30.15277c8.529779-8.529779 8.529779-22.348022 0-30.877801v-0.042649a20.897959 20.897959 0 0 0-29.38509 0l-30.195418 30.195419z m693.257809 30.493961a21.324448 21.324448 0 1 0 30.15277-30.15277l-30.15277-30.15277a21.281799 21.281799 0 0 0-30.15277 30.15277l30.15277 30.15277zM1002.249063 533.111204c5.672303 0 11.088713-2.260392 15.097709-6.226739a21.495044 21.495044 0 0 0 0-30.195419 21.495044 21.495044 0 0 0-15.097709-6.226739h-42.648896a21.495044 21.495044 0 0 0-15.09771 6.226739 21.495044 21.495044 0 0 0 0 30.195419 21.495044 21.495044 0 0 0 15.09771 6.226739h42.648896z m-980.412828-42.648897a21.836235 21.836235 0 0 0-21.836235 21.836235v0.042649c0 5.501708 2.175094 10.790171 6.098792 14.67122a20.599417 20.599417 0 0 0 14.67122 6.098793H63.973344c5.672303 0 11.088713-2.260392 15.09771-6.226739A21.495044 21.495044 0 0 0 85.297793 511.786756v-0.042649a21.23915 21.23915 0 0 0-21.2818-21.2818H21.836235zM180.404831 150.252062c-8.529779-8.529779-22.348022-8.529779-30.877801 0v0.042649a20.599417 20.599417 0 0 0 0 29.385089l30.53661 30.53661a21.281799 21.281799 0 0 0 30.15277 0l0.042649-0.042649a21.23915 21.23915 0 0 0 0-30.067472l-29.854228-29.854227z m693.25781 29.811578a21.324448 21.324448 0 1 0-30.15277-30.15277l-30.15277 30.15277a21.281799 21.281799 0 0 0 30.15277 30.15277l30.15277-30.15277zM533.111204 21.324448a21.495044 21.495044 0 0 0-6.226739-15.097709 21.495044 21.495044 0 0 0-30.195419 0A21.495044 21.495044 0 0 0 490.462307 21.324448v42.648896c0 5.672303 2.260392 11.088713 6.226739 15.09771a21.495044 21.495044 0 0 0 30.195419 0A21.495044 21.495044 0 0 0 533.111204 63.973344v-42.648896z" fill="#D3B99C" p-id="4839"></path><path d="M512.38384 938.318367l1.108871 0.085298 1.108872 0.127947 1.066222 0.170595 1.066222 0.255894 1.023574 0.298542 1.023574 0.341191 0.980924 0.38384 0.980925 0.426489 0.938275 0.511787 0.895627 0.511787 0.895627 0.554435 0.852978 0.639734 0.852978 0.639733 0.76768 0.682383 0.76768 0.725031 0.725031 0.76768 0.682383 0.76768 0.639733 0.852978 0.639734 0.852978 0.554435 0.895627 0.511787 0.895627 0.511787 0.938275 0.426489 0.980925 0.38384 0.980925 0.341191 1.023573 0.298542 1.023574 0.255894 1.066222 0.170595 1.066222 0.127947 1.108872 0.085298 1.108871 0.042649 1.108871v42.691546l-0.042649 1.023573-0.042649 1.023574-0.127947 1.023573-0.170595 0.980925-0.255894 1.023573-0.255893 0.980925-0.341191 0.938276-0.341191 0.938275-0.426489 0.938276-0.426489 0.895627-0.511787 0.895627-0.554436 0.852978-0.597084 0.852977-0.597085 0.810329-0.682382 0.767681-0.725032 0.725031-0.725031 0.725031-0.76768 0.682382-0.810329 0.597085-0.852978 0.597085-0.852978 0.554435-0.895627 0.511787-0.895626 0.426489-0.938276 0.426489-0.938276 0.341191-0.938276 0.341191-0.980924 0.255894-1.023574 0.255893-0.980924 0.170596-1.023574 0.127946-1.023573 0.042649-1.023574 0.042649h-0.042649l-1.108871-0.042649-1.108871-0.085298-1.108872-0.127946-1.066222-0.170596-1.066222-0.255893-1.023574-0.298543-1.023573-0.341191-0.980925-0.38384-0.980925-0.426489-0.938275-0.511787-0.895627-0.511786-0.895627-0.554436-0.852978-0.639733-0.852978-0.639734-0.76768-0.682382-0.76768-0.725031-0.725031-0.767681-0.682383-0.76768-0.639733-0.852978-0.639734-0.852978-0.554435-0.895626-0.511787-0.895627-0.511787-0.938276-0.426489-0.980925-0.38384-0.980924-0.341191-1.023574-0.298542-1.023573-0.255894-1.066223-0.170595-1.066222-0.127947-1.108871-0.085298-1.108872-0.042649-1.108871v-42.691545l0.042649-1.023574 0.042649-1.023573 0.127947-1.023574 0.170595-0.980924 0.255894-1.023574 0.255893-0.980924 0.341191-0.938276 0.341192-0.938276 0.426488-0.938275 0.426489-0.895627 0.511787-0.895627 0.554436-0.852978 0.597084-0.852978 0.597085-0.810329 0.682382-0.76768 0.725032-0.725031 0.725031-0.725032 0.76768-0.682382 0.810329-0.597085 0.852978-0.597084 0.852978-0.554436 0.895627-0.511786 0.895626-0.426489 0.938276-0.426489 0.938276-0.341192 0.938276-0.341191 0.980924-0.255893 1.023574-0.255893 0.980924-0.170596 1.023574-0.127947 1.023573-0.042649 1.023574-0.042649 1.15152 0.042649zM511.786756 1001.481383v-41.113536 41.113536zM196.184923 806.917118l1.023573 0.085298 0.980925 0.127946 1.023574 0.170596 0.980924 0.213244 0.980925 0.255894 0.980924 0.341191 0.938276 0.341191 0.895627 0.426489 0.938276 0.469138 0.852978 0.469138 0.895626 0.554435 0.810329 0.597085 0.810329 0.639733 0.767681 0.639734 0.76768 0.76768 0.810329 0.810329 0.725031 0.810329 0.639733 0.895627 0.639734 0.895627 0.597084 0.895627 0.511787 0.980924 0.469138 0.938276 0.426489 0.980925 0.38384 0.980924 0.298542 1.023574 0.298543 1.023573 0.213244 1.023574 0.170596 1.023573 0.127946 1.066223 0.085298 1.023573v2.089796l-0.085298 1.066222-0.127946 1.023574-0.170596 1.023573-0.213244 1.066223-0.298543 0.980924-0.298542 1.023574-0.38384 0.980925-0.426489 0.980924-0.469138 0.980925-0.511787 0.938276-0.597084 0.895626-0.639734 0.895627-0.639733 0.895627-0.725031 0.852978-0.810329 0.810329-30.15277 30.15277-0.76768 0.725031-0.76768 0.682382-0.810329 0.639734-0.852978 0.554435-0.852978 0.554436-0.852978 0.511787-0.938276 0.426489-0.895627 0.426489-0.980924 0.38384-0.938276 0.298542-0.980924 0.255893-0.980925 0.255894-1.023574 0.170595-1.023573 0.127947-1.023574 0.085298h-2.047147l-1.023573-0.085298-1.023574-0.127947-0.980924-0.170595-0.980925-0.255894-0.980925-0.255893-0.980924-0.298542-0.938276-0.38384-0.938276-0.426489-0.895626-0.426489-0.895627-0.511787-0.852978-0.554436-0.810329-0.554435-0.810329-0.639734-0.810329-0.682382-0.725031-0.725031h-0.042649l-0.76768-0.810329-0.725032-0.852978-0.682382-0.895627-0.597085-0.895627-0.597084-0.895627-0.511787-0.938276-0.469138-0.980924-0.426489-0.980925-0.38384-0.980924-0.341191-1.023574-0.255893-0.980924-0.213245-1.023574-0.170595-1.066222-0.127947-1.023574-0.085298-1.066222-0.042649-1.023574 0.042649-1.066222 0.085298-1.023574 0.127947-1.066222 0.170595-1.023574 0.213245-1.023573 0.255893-1.023574 0.341191-1.023573 0.38384-0.980925 0.426489-0.980924 0.469138-0.938276 0.511787-0.938276 0.597084-0.938276 0.597085-0.895626 0.682382-0.852978 0.725032-0.852978 0.76768-0.810329 30.195418-30.195419 0.76768-0.725031 0.76768-0.639734 0.81033-0.639733 0.810329-0.597085 0.852977-0.554435 0.895627-0.469138 0.895627-0.469138 0.938276-0.426489 0.938276-0.341191 0.980924-0.341191 0.980925-0.255894 0.980924-0.213244 0.980925-0.170596 1.023574-0.127946 1.023573-0.085298 1.023574-0.042649 1.066222 0.042649z m633.293461 0.213244l1.066222 0.085298 1.023574 0.127947 1.066222 0.170595 1.023574 0.255894 0.980924 0.255893 0.980925 0.341191 0.980925 0.38384 0.938275 0.426489 0.938276 0.469138 0.895627 0.511787 0.895627 0.554436 0.852978 0.597084 0.852978 0.639734 0.76768 0.682382 0.76768 0.725031 30.15277 30.15277 0.725031 0.76768 0.682382 0.810329 0.682382 0.810329 0.597085 0.852978 0.554436 0.895627 0.511786 0.895627 0.469138 0.938275 0.426489 0.938276 0.341191 0.980925 0.341192 0.980924 0.298542 1.023574 0.213244 1.023573 0.170596 1.023574 0.127947 1.023573 0.085297 1.066223 0.042649 1.066222-0.042649 1.066223-0.085297 1.023573-0.127947 1.066223-0.170596 1.023573-0.213244 1.023574-0.298542 0.980924-0.341192 0.980925-0.341191 0.980924-0.426489 0.938276-0.469138 0.938276-0.511786 0.895627-0.554436 0.895626-0.597085 0.852978-0.682382 0.852978-0.682382 0.76768-0.725031 0.767681-0.767681 0.725031-0.76768 0.682382-0.852978 0.682382-0.852978 0.597085-0.895626 0.554436-0.895627 0.511786-0.938276 0.469138-0.938276 0.426489-0.980924 0.341191-0.980925 0.341192-0.980924 0.298542-1.023574 0.213244-1.023573 0.170596-1.066223 0.127947-1.023573 0.085297-1.066223 0.042649-1.066222-0.042649-1.066223-0.085297-1.023573-0.127947-1.023574-0.170596-1.023573-0.213244-1.023574-0.298542-0.980924-0.341192-0.980925-0.341191-0.938276-0.426489-0.938275-0.469138-0.895627-0.511786-0.895627-0.554436-0.852978-0.597085-0.810329-0.682382-0.810329-0.682382-0.76768-0.725031-30.15277-30.15277-0.725031-0.76768-0.682382-0.76768-0.639734-0.852978-0.597084-0.852978-0.554436-0.895627-0.511787-0.895627-0.469138-0.938276-0.426489-0.938275-0.38384-0.980925-0.341191-0.980925-0.255893-0.980924-0.255894-1.023574-0.170595-1.066222-0.127947-1.023574-0.085298-1.066222V827.388588l0.085298-1.066222 0.127947-1.023574 0.170595-1.023573 0.255894-1.023574 0.255893-1.023573 0.341191-0.980925 0.38384-0.980925 0.426489-0.938275 0.469138-0.938276 0.511787-0.895627 0.554436-0.895627 0.597084-0.852978 0.639734-0.810329 0.682382-0.810329 0.725031-0.76768 0.76768-0.725031 0.810329-0.682382 0.810329-0.639734 0.852978-0.597084 0.895627-0.554436 0.895627-0.511787 0.938276-0.469138 0.938275-0.426489 0.980925-0.38384 0.980925-0.341191 1.023573-0.255893 1.023574-0.255894 1.023573-0.170595 1.023574-0.127947 1.066222-0.085298h2.089796z m-639.861391 26.826156l4.947272-4.947272-4.947272 4.947272z m639.008413-5.331112l3.028072 3.028072-3.028072-3.028072zM1002.249063 490.462307l1.066222 0.042649 1.023574 0.042649 1.066222 0.127947 1.023574 0.213244 1.023573 0.213245 0.980925 0.298542 1.023573 0.298542 0.938276 0.38384 0.980925 0.426489 0.895627 0.469138 0.938275 0.511787 0.852978 0.554436 0.852978 0.597084 0.852978 0.639734 0.810329 0.682382 0.76768 0.725031 0.725031 0.76768 0.682383 0.810329 0.639733 0.852978 0.597085 0.852978 0.554435 0.852978 0.511787 0.938276 0.469138 0.895627 0.426489 0.980924 0.38384 0.938276 0.298542 1.023574 0.298543 0.980924 0.213244 1.023574 0.213245 1.023573 0.127946 1.066223 0.042649 1.023573L1023.573511 511.786756l-0.042649 1.066222-0.042649 1.023573-0.127946 1.066223-0.213245 1.023573-0.213244 1.023574-0.298543 0.980924-0.298542 1.023574-0.38384 0.938276-0.426489 0.980924-0.469138 0.895627-0.511787 0.938276-0.554435 0.852978-0.597085 0.852978-0.639733 0.852978-0.682383 0.810329-0.725031 0.76768-0.76768 0.725031-0.810329 0.682382-0.852978 0.639734-0.852978 0.597084-0.852978 0.554436-0.938275 0.511787-0.895627 0.469138-0.980925 0.426489-0.938276 0.38384-1.023573 0.298542-0.980925 0.298542-1.023573 0.213245-1.023574 0.213244-1.066222 0.127947-1.023574 0.042649-1.066222 0.042649h-42.648896l-1.066223-0.042649-1.023573-0.042649-1.066223-0.127947-1.023573-0.213244-1.023574-0.213245-0.980924-0.298542-1.023574-0.298542-0.938276-0.38384-0.980924-0.426489-0.895627-0.469138-0.938276-0.511787-0.852978-0.554436-0.852978-0.597084-0.852978-0.639734-0.810329-0.682382-0.76768-0.725031-0.725031-0.76768-0.682382-0.810329-0.639734-0.852978-0.597084-0.852978-0.554436-0.852978-0.511787-0.938276-0.469138-0.895627-0.426488-0.980924-0.383841-0.938276-0.298542-1.023574-0.298542-0.980924-0.213245-1.023574-0.213244-1.023573-0.127947-1.066223-0.042649-1.023573L938.275718 511.786756l0.042649-1.066223 0.042649-1.023573 0.127947-1.066223 0.213244-1.023573 0.213245-1.023574 0.298542-0.980924 0.298542-1.023574 0.383841-0.938276 0.426488-0.980924 0.469138-0.895627 0.511787-0.938276 0.554436-0.852978 0.597084-0.852978 0.639734-0.852978 0.682382-0.810329 0.725031-0.76768 0.76768-0.725031 0.810329-0.682382 0.852978-0.639734 0.852978-0.597084 0.852978-0.554436 0.938276-0.511787 0.895627-0.469138 0.980924-0.426489 0.938276-0.38384 1.023574-0.298542 0.980924-0.298542 1.023574-0.213245 1.023573-0.213244 1.066223-0.127947 1.023573-0.042649 1.066223-0.042649h42.648896z m-938.23307 0l1.108872 0.042649 1.066222 0.085298 1.066222 0.127947 1.066223 0.170595 1.023573 0.255894 0.980925 0.255893 1.023573 0.341191 0.938276 0.38384 0.938276 0.426489 0.938276 0.469138 0.895626 0.511787 0.852978 0.554436 0.852978 0.597084 0.76768 0.639734 0.810329 0.682382 0.725032 0.682382 0.682382 0.725031 0.682382 0.810329 0.639734 0.767681 0.597084 0.852978 0.554436 0.852977 0.511787 0.895627 0.469138 0.938276 0.426489 0.938276 0.38384 0.938275 0.341191 1.023574 0.255893 0.980925 0.255894 1.023573 0.170595 1.066223 0.127947 1.066222 0.085298 1.066222L85.297793 511.786756l-0.042649 1.066222-0.042649 1.023573-0.127947 1.066223-0.213244 1.023573-0.213245 1.023574-0.298542 0.980924-0.298542 1.023574-0.38384 0.938276-0.426489 0.980924-0.469138 0.895627-0.511787 0.938276-0.554436 0.852978-0.597084 0.852978-0.639734 0.852978-0.682382 0.810329-0.725031 0.76768-0.76768 0.725031-0.810329 0.682382-0.852978 0.639734-0.852978 0.597084-0.852978 0.554436-0.938276 0.511787-0.895627 0.469138-0.980924 0.426489-0.938276 0.38384-1.023574 0.298542-0.980924 0.298542-1.023574 0.213245-1.023573 0.213244-1.066223 0.127947-1.023573 0.042649-1.066223 0.042649H20.770012l-1.023573-0.042649-1.023574-0.042649-1.023573-0.127947-0.980925-0.170595-1.023573-0.255894-0.980925-0.255893-0.938275-0.341191-0.938276-0.341191-0.938276-0.426489-0.895627-0.426489-0.895627-0.511787-0.852978-0.554436-0.852977-0.597084-0.810329-0.597085-0.767681-0.682382-0.725031-0.725032-0.725031-0.725031-0.682382-0.76768-0.597085-0.810329-0.597085-0.852978-0.554435-0.852978-0.511787-0.895627-0.426489-0.895626-0.426489-0.938276-0.341191-0.938276-0.341191-0.938276-0.255894-0.980924-0.255893-1.023574-0.170596-0.980924-0.127946-1.023574-0.042649-1.023573L0 512.341191v-0.042649l0.042649-1.108871 0.085298-1.108871 0.127946-1.108872 0.170596-1.066222 0.255893-1.066222 0.298543-1.023574 0.341191-1.023573 0.38384-0.980925 0.426489-0.980925 0.511787-0.938275 0.511786-0.895627 0.554436-0.895627 0.639733-0.852978 0.639734-0.852978 0.682382-0.76768 0.725031-0.76768 0.767681-0.725031 0.76768-0.682383 0.852978-0.639733 0.852978-0.639734 0.895626-0.554435 0.895627-0.511787 0.938276-0.511787 0.980925-0.426489 0.980924-0.38384 1.023574-0.341191 1.023573-0.298542 1.066223-0.255894 1.066222-0.170595 1.108871-0.127947 1.108872-0.085298 1.108871-0.042649h42.179758z m895.840067 21.324449h42.13711-42.13711zM22.092128 511.786756h41.625323-41.625323z m143.940025-367.88938l1.023574 0.085298 1.066222 0.127947 1.023574 0.170595 1.023573 0.213245 1.023574 0.255893 1.023573 0.341191 0.980925 0.38384 0.980924 0.426489 0.938276 0.469138 0.938276 0.511787 0.938276 0.597084 0.895626 0.597085 0.852978 0.682382 0.852978 0.725032 0.810329 0.76768 29.854228 29.854227 0.725031 0.76768 0.725031 0.810329 0.639734 0.852978 0.639733 0.895627 0.554436 0.895627 0.511786 0.895627 0.469138 0.938275 0.38384 0.980925 0.38384 0.938276 0.298543 0.980924 0.298542 1.023574 0.213245 0.980924 0.170595 1.023574 0.127947 1.023573 0.042649 0.980925 0.042649 1.023574-0.042649 1.023573-0.042649 1.023574-0.127947 1.023573-0.170595 1.023574-0.213245 0.980924-0.298542 0.980925-0.298543 0.980924-0.38384 0.980925-0.38384 0.938276-0.469138 0.938275-0.511786 0.938276-0.554436 0.895627-0.639733 0.852978-0.639734 0.852978-0.725031 0.852978-0.725031 0.76768-0.042649 0.042649-0.76768 0.725031-0.810329 0.682382-0.810329 0.639734-0.852978 0.597084-0.895627 0.554436-0.895627 0.511787-0.938276 0.469138-0.938275 0.426489-0.980925 0.38384-0.980925 0.341191-1.023573 0.255893-1.023574 0.255894-1.023573 0.170595-1.023574 0.127947-1.066222 0.085298h-2.089796l-1.066222-0.085298-1.023574-0.127947-1.066222-0.170595-1.023574-0.255894-0.980924-0.255893-0.980925-0.341191-0.980925-0.38384-0.938275-0.426489-0.938276-0.469138-0.895627-0.511787-0.895627-0.554436-0.852978-0.597084-0.852978-0.639734-0.76768-0.682382-0.76768-0.725031-30.53661-30.53661-0.725031-0.76768-0.682382-0.76768-0.639734-0.810329-0.554435-0.852978-0.554436-0.852978-0.511787-0.852978-0.426489-0.938276-0.426489-0.895627-0.38384-0.980924-0.298542-0.938276-0.255893-0.980924-0.255894-0.980925-0.170595-1.023574-0.127947-1.023573-0.085298-1.023574v-2.047147l0.085298-1.023573 0.127947-1.023574 0.170595-0.980924 0.255894-0.980925 0.255893-0.980925 0.298542-0.980924 0.38384-0.938276 0.426489-0.938276 0.426489-0.895626 0.511787-0.895627 0.554436-0.852978 0.554435-0.810329 0.639734-0.810329 0.682382-0.810329 0.725031-0.725031v-0.042649l0.810329-0.76768 0.852978-0.725032 0.895627-0.682382 0.895627-0.597085 0.895627-0.597084 0.938276-0.511787 0.980924-0.469138 0.980925-0.426489 0.980924-0.38384 1.023574-0.341191 0.980925-0.255893 1.023573-0.213245 1.066222-0.170595 1.023574-0.127947 1.066222-0.085298 1.023574-0.042649 1.066222 0.042649z m693.64165-0.213244l1.023573 0.085297 1.066223 0.127947 1.023573 0.170596 1.023574 0.213244 0.980924 0.298542 0.980925 0.341192 0.980924 0.341191 0.938276 0.426489 0.938276 0.469138 0.895627 0.511786 0.895626 0.554436 0.852978 0.597085 0.852978 0.682382 0.76768 0.682382 0.767681 0.725031 0.725031 0.767681 0.682382 0.76768 0.682382 0.852978 0.597085 0.852978 0.554436 0.895626 0.511786 0.895627 0.469138 0.938276 0.426489 0.938276 0.341191 0.980924 0.341192 0.980925 0.298542 0.980925 0.213244 1.023573 0.170596 1.023574 0.127947 1.066222 0.085297 1.023573 0.042649 1.066223-0.042649 1.066222-0.085297 1.066223-0.127947 1.023573-0.170596 1.023574-0.213244 1.023573-0.298542 1.023574-0.341192 0.980924-0.341191 0.980925-0.426489 0.938276-0.469138 0.938275-0.511786 0.895627-0.554436 0.895627-0.597085 0.852978-0.682382 0.810329-0.682382 0.810329-0.725031 0.76768-30.15277 30.15277-0.76768 0.725031-0.76768 0.682382-0.852978 0.639734-0.852978 0.597084-0.895627 0.554436-0.895627 0.511787-0.938276 0.469138-0.938275 0.426489-0.980925 0.38384-0.980925 0.341191-0.980924 0.255893-1.023574 0.255894-1.066222 0.170595-1.023574 0.127947-1.066222 0.085298H827.388588l-1.066222-0.085298-1.023574-0.127947-1.023573-0.170595-1.023574-0.255894-1.023573-0.255893-0.980925-0.341191-0.980925-0.38384-0.938275-0.426489-0.938276-0.469138-0.895627-0.511787-0.895627-0.554436-0.852978-0.597084-0.810329-0.639734-0.810329-0.682382-0.76768-0.725031-0.725031-0.76768-0.682382-0.810329-0.639734-0.810329-0.597084-0.852978-0.554436-0.895627-0.511787-0.895627-0.469138-0.938276-0.426489-0.938275-0.38384-0.980925-0.341191-0.980925-0.255893-1.023573-0.255894-1.023574-0.170595-1.023573-0.127947-1.023574-0.085298-1.066222v-2.089796l0.085298-1.066222 0.127947-1.023574 0.170595-1.066222 0.255894-1.023574 0.255893-0.980924 0.341191-0.980925 0.38384-0.980925 0.426489-0.938275 0.469138-0.938276 0.511787-0.895627 0.554436-0.895627 0.597084-0.852978 0.639734-0.852978 0.682382-0.76768 0.725031-0.76768 30.15277-30.15277 0.76768-0.725031 0.810329-0.682382 0.810329-0.682382 0.852978-0.597085 0.895627-0.554436 0.895627-0.511786 0.938275-0.469138 0.938276-0.426489 0.980925-0.341191 0.980924-0.341192 1.023574-0.298542 1.023573-0.213244 1.023574-0.170596 1.023573-0.127947 1.066223-0.085297 1.066222-0.042649 1.066223 0.042649z m-31.048397 51.263973l2.473636-2.473636-2.473636 2.473636zM512.852978 0.042649l1.023573 0.042649 1.066223 0.127946 1.023573 0.213245 1.023574 0.213244 0.980924 0.298543 1.023574 0.298542 0.938276 0.38384 0.980924 0.426489 0.895627 0.469138 0.938276 0.511787 0.852978 0.554435 0.852978 0.597085 0.852978 0.639733 0.810329 0.682383 0.76768 0.725031 0.725031 0.76768 0.682382 0.810329 0.639734 0.852978 0.597084 0.852978 0.554436 0.852978 0.511787 0.938276 0.469138 0.895626 0.426489 0.980925 0.38384 0.938276 0.298542 1.023573 0.298542 0.980925 0.213245 1.023573 0.213244 1.023574 0.127947 1.066222 0.042649 1.023574L533.111204 21.324448v42.648896l-0.042649 1.066223-0.042649 1.023573-0.127947 1.066223-0.213244 1.023573-0.213245 1.023574-0.298542 0.980924-0.298542 1.023574-0.38384 0.938276-0.426489 0.980924-0.469138 0.895627-0.511787 0.938276-0.554436 0.852978-0.597084 0.852978-0.639734 0.852978-0.682382 0.810329-0.725031 0.76768-0.76768 0.725031-0.810329 0.682382-0.852978 0.639734-0.852978 0.597084-0.852978 0.554436-0.938276 0.511787-0.895627 0.469138-0.980924 0.426489-0.938276 0.38384-1.023574 0.298542-0.980924 0.298542-1.023574 0.213245-1.023573 0.213244-1.066223 0.127947-1.023573 0.042649L511.786756 85.297793l-1.066223-0.042649-1.023573-0.042649-1.066223-0.127947-1.023573-0.213244-1.023574-0.213245-0.980924-0.298542-1.023574-0.298542-0.938276-0.38384-0.980924-0.426489-0.895627-0.469138-0.938276-0.511787-0.852978-0.554436-0.852978-0.597084-0.852978-0.639734-0.810329-0.682382-0.76768-0.725031-0.725031-0.76768-0.682382-0.810329-0.639734-0.852978-0.597084-0.852978-0.554436-0.852978-0.511787-0.938276-0.469138-0.895627-0.426489-0.980924-0.38384-0.938276-0.298542-1.023574-0.298542-0.980924-0.213245-1.023574-0.213244-1.023573-0.127947-1.066223-0.042649-1.023573L490.462307 63.973344v-42.648896l0.042649-1.066222 0.042649-1.023574 0.127947-1.066222 0.213244-1.023574 0.213245-1.023573 0.298542-0.980925 0.298542-1.023573 0.38384-0.938276 0.426489-0.980925 0.469138-0.895626 0.511787-0.938276 0.554436-0.852978 0.597084-0.852978 0.639734-0.852978 0.682382-0.810329 0.725031-0.76768 0.76768-0.725031 0.810329-0.682383 0.852978-0.639733 0.852978-0.597085 0.852978-0.554435 0.938276-0.511787 0.895627-0.469138 0.980924-0.426489 0.938276-0.38384 1.023574-0.298542 0.980924-0.298543 1.023574-0.213244 1.023573-0.213245 1.066223-0.127946 1.023573-0.042649L511.786756 0l1.066222 0.042649zM511.786756 21.580342v42.137109-42.137109z" fill="#FFB28E" p-id="4840"></path><path d="M277.217826 447.813411a21.324448 21.111204 90 1 0 42.222407 0 21.324448 21.111204 90 1 0-42.222407 0Z" fill="#FFB28E" p-id="4841"></path></svg>