<?xml version="1.0" standalone="no"?><!DOCTYPE svg PUBLIC "-//W3C//DTD SVG 1.1//EN" "http://www.w3.org/Graphics/SVG/1.1/DTD/svg11.dtd"><svg t="1676959997608" class="icon" viewBox="0 0 1024 1024" version="1.1" xmlns="http://www.w3.org/2000/svg" p-id="12266" xmlns:xlink="http://www.w3.org/1999/xlink" width="200" height="200"><path d="M746.666667 298.666667m-149.333334 0a149.333333 149.333333 0 1 0 298.666667 0 149.333333 149.333333 0 1 0-298.666667 0Z" fill="#FFE97C" p-id="12267"></path><path d="M597.333333 384m-85.333333 0a85.333333 85.333333 0 1 0 170.666667 0 85.333333 85.333333 0 1 0-170.666667 0Z" fill="#FFE97C" p-id="12268"></path><path d="M213.333333 533.333333m-85.333333 0a85.333333 85.333333 0 1 0 170.666667 0 85.333333 85.333333 0 1 0-170.666667 0Z" fill="#FFE97C" p-id="12269"></path><path d="M682.666667 834.858667m-85.333334 0a85.333333 85.333333 0 1 0 170.666667 0 85.333333 85.333333 0 1 0-170.666667 0Z" fill="#FFE97C" p-id="12270"></path><path d="M533.333333 746.666667m-42.666666 0a42.666667 42.666667 0 1 0 85.333333 0 42.666667 42.666667 0 1 0-85.333333 0Z" fill="#FFE97C" p-id="12271"></path><path d="M790.442667 554.709333l1.066666 0.085334 1.066667 0.128 1.066667 0.170666 1.024 0.256 1.024 0.256 0.981333 0.341334 0.981333 0.384 0.938667 0.426666 0.896 0.469334 0.896 0.512 0.853333 0.554666 0.853334 0.597334 0.810666 0.64 0.768 0.682666 0.725334 0.725334 0.725333 0.725333 0.682667 0.768 0.64 0.810667 0.597333 0.853333 0.554667 0.853333 0.512 0.896 0.469333 0.896 0.426667 0.938667 0.384 0.981333 0.341333 0.981334 0.256 1.024 0.256 1.024 0.170667 1.066666 0.128 1.066667 0.085333 1.066667 0.042667 1.109333-0.042667 1.109333-0.085333 1.066667-0.128 1.066667-0.170667 1.066666-0.256 1.024-0.256 1.024-0.341333 0.981334-0.384 0.981333-0.426667 0.938667-0.469333 0.896-0.512 0.896-0.554667 0.853333-0.597333 0.853333-0.64 0.810667-0.682667 0.768-0.725333 0.725333-0.725334 0.725334-0.768 0.682666-0.810666 0.64-0.853334 0.597334-0.853333 0.554666-0.896 0.512-0.896 0.469334-0.938667 0.426666-0.981333 0.384-0.981333 0.341334-1.024 0.256-1.024 0.256-1.066667 0.170666-1.066667 0.128-1.066666 0.085334L789.333333 597.333333H42.666667l-1.109334-0.042666-1.066666-0.085334-1.066667-0.128-1.066667-0.170666-1.024-0.256-1.024-0.256-0.981333-0.341334-0.981333-0.384-0.938667-0.426666-0.896-0.469334-0.896-0.512-0.853333-0.554666-0.853334-0.597334-0.810666-0.64-0.768-0.682666-0.725334-0.725334-0.725333-0.725333-0.682667-0.768-0.64-0.810667-0.597333-0.853333-0.554667-0.853333-0.512-0.896-0.469333-0.896-0.426667-0.938667-0.384-0.981333-0.341333-0.981334-0.256-1.024-0.256-1.024-0.170667-1.066666-0.128-1.066667-0.085333-1.066667L21.333333 576l0.042667-1.109333 0.085333-1.066667 0.128-1.066667 0.170667-1.066666 0.256-1.024 0.256-1.024 0.341333-0.981334 0.384-0.981333 0.426667-0.938667 0.469333-0.896 0.512-0.896 0.554667-0.853333 0.597333-0.853333 0.64-0.810667 0.682667-0.768 0.725333-0.725333 0.725334-0.725334 0.768-0.682666 0.810666-0.64 0.853334-0.597334 0.853333-0.554666 0.896-0.512 0.896-0.469334 0.938667-0.426666 0.981333-0.384 0.981333-0.341334 1.024-0.256 1.024-0.256 1.066667-0.170666 1.066667-0.128 1.066666-0.085334L42.666667 554.666667h746.666666l1.109334 0.042666zM961.109333 554.709333l1.066667 0.085334 1.066667 0.128 1.066666 0.170666 1.024 0.256 1.024 0.256 0.981334 0.341334 0.981333 0.384 0.938667 0.426666 0.896 0.469334 0.896 0.512 0.853333 0.554666 0.853333 0.597334 0.810667 0.64 0.768 0.682666 0.725333 0.725334 0.725334 0.725333 0.682666 0.768 0.64 0.810667 0.597334 0.853333 0.554666 0.853333 0.512 0.896 0.469334 0.896 0.426666 0.938667 0.384 0.981333 0.341334 0.981334 0.256 1.024 0.256 1.024 0.170666 1.066666 0.128 1.066667 0.085334 1.066667 0.042666 1.109333-0.042666 1.109333-0.085334 1.066667-0.128 1.066667-0.170666 1.066666-0.256 1.024-0.256 1.024-0.341334 0.981334-0.384 0.981333-0.426666 0.938667-0.469334 0.896-0.512 0.896-0.554666 0.853333-0.597334 0.853333-0.64 0.810667-0.682666 0.768-0.725334 0.725333-0.725333 0.725334-0.768 0.682666-0.810667 0.64-0.853333 0.597334-0.853333 0.554666-0.896 0.512-0.896 0.469334-0.938667 0.426666-0.981333 0.384-0.981334 0.341334-1.024 0.256-1.024 0.256-1.066666 0.170666-1.066667 0.128-1.066667 0.085334L960 597.333333h-42.666667l-1.109333-0.042666-1.066667-0.085334-1.066666-0.128-1.066667-0.170666-1.024-0.256-1.024-0.256-0.981333-0.341334-0.981334-0.384-0.938666-0.426666-0.896-0.469334-0.896-0.512-0.853334-0.554666-0.853333-0.597334-0.810667-0.64-0.768-0.682666-0.725333-0.725334-0.725333-0.725333-0.682667-0.768-0.64-0.810667-0.597333-0.853333-0.554667-0.853333-0.512-0.896-0.469333-0.896-0.426667-0.938667-0.384-0.981333-0.341333-0.981334-0.256-1.024-0.256-1.024-0.170667-1.066666-0.128-1.066667-0.085333-1.066667L896 576l0.042667-1.109333 0.085333-1.066667 0.128-1.066667 0.170667-1.066666 0.256-1.024 0.256-1.024 0.341333-0.981334 0.384-0.981333 0.426667-0.938667 0.469333-0.896 0.512-0.896 0.554667-0.853333 0.597333-0.853333 0.64-0.810667 0.682667-0.768 0.725333-0.725333 0.725333-0.725334 0.768-0.682666 0.810667-0.64 0.853333-0.597334 0.853334-0.554666 0.896-0.512 0.896-0.469334 0.938666-0.426666 0.981334-0.384 0.981333-0.341334 1.024-0.256 1.024-0.256 1.066667-0.170666 1.066666-0.128 1.066667-0.085334L917.333333 554.666667h42.666667l1.109333 0.042666zM938.666667 576v0.554667-1.109334 0.554667zM406.442667 768.042667l1.066666 0.085333 1.066667 0.128 1.066667 0.170667 1.024 0.256 1.024 0.256 0.981333 0.341333 0.981333 0.384 0.938667 0.426667 0.896 0.469333 0.896 0.512 0.853333 0.554667 0.853334 0.597333 0.810666 0.64 0.768 0.682667 0.725334 0.725333 0.725333 0.725333 0.682667 0.768 0.64 0.810667 0.597333 0.853333 0.554667 0.853334 0.512 0.896 0.469333 0.896 0.426667 0.938666 0.384 0.981334 0.341333 0.981333 0.256 1.024 0.256 1.024 0.170667 1.066667 0.128 1.066666 0.085333 1.066667 0.042667 1.109333-0.042667 1.109334-0.085333 1.066666-0.128 1.066667-0.170667 1.066667-0.256 1.024-0.256 1.024-0.341333 0.981333-0.384 0.981333-0.426667 0.938667-0.469333 0.896-0.512 0.896-0.554667 0.853333-0.597333 0.853334-0.64 0.810666-0.682667 0.768-0.725333 0.725334-0.725334 0.725333-0.768 0.682667-0.810666 0.64-0.853334 0.597333-0.853333 0.554667-0.896 0.512-0.896 0.469333-0.938667 0.426667-0.981333 0.384-0.981333 0.341333-1.024 0.256-1.024 0.256-1.066667 0.170667-1.066667 0.128-1.066666 0.085333L405.333333 810.666667h-42.666666l-1.109334-0.042667-1.066666-0.085333-1.066667-0.128-1.066667-0.170667-1.024-0.256-1.024-0.256-0.981333-0.341333-0.981333-0.384-0.938667-0.426667-0.896-0.469333-0.896-0.512-0.853333-0.554667-0.853334-0.597333-0.810666-0.64-0.768-0.682667-0.725334-0.725333-0.725333-0.725334-0.682667-0.768-0.64-0.810666-0.597333-0.853334-0.554667-0.853333-0.512-0.896-0.469333-0.896-0.426667-0.938667-0.384-0.981333-0.341333-0.981333-0.256-1.024-0.256-1.024-0.170667-1.066667-0.128-1.066667-0.085333-1.066666L341.333333 789.333333l0.042667-1.109333 0.085333-1.066667 0.128-1.066666 0.170667-1.066667 0.256-1.024 0.256-1.024 0.341333-0.981333 0.384-0.981334 0.426667-0.938666 0.469333-0.896 0.512-0.896 0.554667-0.853334 0.597333-0.853333 0.64-0.810667 0.682667-0.768 0.725333-0.725333 0.725334-0.725333 0.768-0.682667 0.810666-0.64 0.853334-0.597333 0.853333-0.554667 0.896-0.512 0.896-0.469333 0.938667-0.426667 0.981333-0.384 0.981333-0.341333 1.024-0.256 1.024-0.256 1.066667-0.170667 1.066667-0.128 1.066666-0.085333L362.666667 768h42.666666l1.109334 0.042667zM384 789.333333v0.554667-1.109333 0.554666zM363.776 298.709333l1.066667 0.085334 1.066666 0.128 1.066667 0.170666 1.024 0.256 1.024 0.256 0.981333 0.341334 0.981334 0.384 0.938666 0.426666 0.896 0.469334 0.896 0.512 0.853334 0.554666 0.853333 0.597334 0.810667 0.64 0.768 0.682666 0.725333 0.725334 0.725333 0.725333 0.682667 0.768 0.64 0.810667 0.597333 0.853333 0.554667 0.853333 0.512 0.896 0.469333 0.896 0.426667 0.938667 0.384 0.981333 0.341333 0.981334 0.256 1.024 0.256 1.024 0.170667 1.066666 0.128 1.066667 0.085333 1.066667L384 320l-0.042667 1.109333-0.085333 1.066667-0.128 1.066667-0.170667 1.066666-0.256 1.024-0.256 1.024-0.341333 0.981334-0.384 0.981333-0.426667 0.938667-0.469333 0.896-0.512 0.896-0.554667 0.853333-0.597333 0.853333-0.64 0.810667-0.682667 0.768-0.725333 0.725333-0.725333 0.725334-0.768 0.682666-0.810667 0.64-0.853333 0.597334-0.853334 0.554666-0.896 0.512-0.896 0.469334-0.938666 0.426666-0.981334 0.384-0.981333 0.341334-1.024 0.256-1.024 0.256-1.066667 0.170666-1.066666 0.128-1.066667 0.085334L362.666667 341.333333h-128l-1.109334-0.042666-1.066666-0.085334-1.066667-0.128-1.066667-0.170666-1.024-0.256-1.024-0.256-0.981333-0.341334-0.981333-0.384-0.938667-0.426666-0.896-0.469334-0.896-0.512-0.853333-0.554666-0.853334-0.597334-0.810666-0.64-0.768-0.682666-0.725334-0.725334-0.725333-0.725333-0.682667-0.768-0.64-0.810667-0.597333-0.853333-0.554667-0.853333-0.512-0.896-0.469333-0.896-0.426667-0.938667-0.384-0.981333-0.341333-0.981334-0.256-1.024-0.256-1.024-0.170667-1.066666-0.128-1.066667-0.085333-1.066667L213.333333 320l0.042667-1.109333 0.085333-1.066667 0.128-1.066667 0.170667-1.066666 0.256-1.024 0.256-1.024 0.341333-0.981334 0.384-0.981333 0.426667-0.938667 0.469333-0.896 0.512-0.896 0.554667-0.853333 0.597333-0.853333 0.64-0.810667 0.682667-0.768 0.725333-0.725333 0.725334-0.725334 0.768-0.682666 0.810666-0.64 0.853334-0.597334 0.853333-0.554666 0.896-0.512 0.896-0.469334 0.938667-0.426666 0.981333-0.384 0.981333-0.341334 1.024-0.256 1.024-0.256 1.066667-0.170666 1.066667-0.128 1.066666-0.085334L234.666667 298.666667h128l1.109333 0.042666z" fill="#FFB28E" p-id="12272"></path><path d="M751.616 85.376c70.442667 0.896 112.213333 30.421333 144.384 69.632 57.045333 69.546667 45.482667 195.498667-7.253333 251.392-38.229333 40.576-84.650667 60.885333-137.130667 62.890667C515.328 472.277333 278.997333 469.333333 42.666667 469.333333c-14.805333-0.938667-16.512-6.314667-19.285334-12.245333-6.144-13.056 3.285333-29.397333 19.285334-30.421333 235.946667 0 471.936 2.944 707.84-0.042667 41.216-1.578667 89.045333-19.626667 115.029333-52.864 43.050667-55.04 49.237333-148.437333-5.077333-203.093333-63.701333-64.128-135.466667-53.205333-208.938667-8.405334 0 0-16.768 8.533333-27.178667-0.298666-32.256-27.306667 63.36-77.397333 127.274667-76.586667zM686.506667 682.709333c54.698667 2.090667 100.736 35.626667 124.16 85.290667 32.256 68.394667 4.693333 169.386667-76.672 204.245333-62.805333 26.965333-141.269333-3.541333-178.432-61.866666 0 0-6.144-13.866667 0.341333-23.424 14.976-22.058667 43.221333 27.904 73.685333 44.373333 34.602667 18.730667 85.546667 19.114667 117.077334-5.290667 41.514667-32.170667 59.221333-104.832 22.997333-155.733333a109.44 109.44 0 0 0-84.224-44.928C471.210667 722.645333 256.938667 725.333333 42.666667 725.333333c-24.192-1.408-29.269333-40.96 0-42.666666 214.613333 0 429.226667-2.688 643.84 0.042666z" fill="#FFB28E" p-id="12273"></path></svg>