<?xml version="1.0" standalone="no"?><!DOCTYPE svg PUBLIC "-//W3C//DTD SVG 1.1//EN" "http://www.w3.org/Graphics/SVG/1.1/DTD/svg11.dtd"><svg t="1676960025124" class="icon" viewBox="0 0 1024 1024" version="1.1" xmlns="http://www.w3.org/2000/svg" p-id="13374" xmlns:xlink="http://www.w3.org/1999/xlink" width="200" height="200"><path d="M653.5 684.6H87.4c-13.1 0-23.9-10.7-23.9-23.9 0-13.1 10.7-23.9 23.9-23.9h566.1c13.1 0 23.9 10.7 23.9 23.9s-10.8 23.9-23.9 23.9zM936.6 774.1H370.5c-13.1 0-23.9-10.7-23.9-23.9 0-13.1 10.7-23.9 23.9-23.9h566.1c13.1 0 23.9 10.7 23.9 23.9-0.1 13.1-10.8 23.9-23.9 23.9zM722.8 863.5h-566c-13.1 0-23.9-10.7-23.9-23.9 0-13.1 10.7-23.9 23.9-23.9h566.1c13.1 0 23.9 10.7 23.9 23.9-0.1 13.2-10.8 23.9-24 23.9z" fill="#1A1A1A" p-id="13375"></path><path d="M513.5 301.9c-13.4 0-24.4-11-24.4-24.4v-92.6c0-13.4 11-24.4 24.4-24.4 13.4 0 24.4 11 24.4 24.4v92.6c0 13.4-10.9 24.4-24.4 24.4zM793.2 581.6c0 13.4 11 24.4 24.4 24.4h92.6c13.4 0 24.4-11 24.4-24.4 0-13.4-11-24.4-24.4-24.4h-92.6c-13.4 0-24.4 11-24.4 24.4zM233.5 581.6c0 13.4-11 24.4-24.4 24.4h-92.6c-13.4 0-24.4-11-24.4-24.4 0-13.4 11-24.4 24.4-24.4h92.6c13.4 0 24.4 11 24.4 24.4zM713.5 384.8c-9.5-9.5-9.5-25 0-34.5l53.8-53.8c9.5-9.5 25-9.5 34.5 0s9.5 25 0 34.5L748 384.8c-9.5 9.5-25 9.5-34.5 0zM313.3 384.8c9.5-9.5 9.5-25 0-34.5l-53.8-53.8c-9.5-9.5-25-9.5-34.5 0s-9.5 25 0 34.5l53.8 53.8c9.5 9.5 25 9.5 34.5 0z" fill="#1A1A1A" p-id="13376"></path><path d="M716.6 625.8c2.4-12.6 3.7-25.6 3.7-38.8 0-113.9-92.3-206.2-206.2-206.2-113.9 0-206.2 92.3-206.2 206.2 0 13.3 1.3 26.3 3.7 38.8h405z" fill="#00B36A" p-id="13377"></path><path d="M374.8 625.8c-25-31.7-43.5-68-55-107.8-7.6 21.6-11.8 44.8-11.8 68.9 0 13.3 1.3 26.3 3.7 38.8h63.1z" fill="#009957" p-id="13378"></path><path d="M697.8 582.5c0 14.9-1.8 29.4-5.2 43.3h43.2c2.7-14 4.2-28.5 4.2-43.3 0-13.4-1.2-26.9-3.5-40-2-11.5-13-19.1-24.5-17.1s-19.1 13-17.1 24.5c1.9 10.7 2.9 21.6 2.9 32.6zM332.7 625.8c-3.3-13.9-5.2-28.4-5.2-43.3 0-102.1 83-185.1 185.1-185.1 22.7 0 44.8 4.1 65.8 12 10.9 4.1 23.1-1.3 27.2-12.2 4.1-10.9-1.3-23.1-12.2-27.2-25.8-9.8-53-14.8-80.8-14.8-125.4 0-227.3 102-227.3 227.3 0 14.8 1.5 29.3 4.2 43.3h43.2z" fill="#1A1A1A" p-id="13379"></path></svg>