<?xml version="1.0" standalone="no"?><!DOCTYPE svg PUBLIC "-//W3C//DTD SVG 1.1//EN" "http://www.w3.org/Graphics/SVG/1.1/DTD/svg11.dtd"><svg t="1676960099594" class="icon" viewBox="0 0 1223 1024" version="1.1" xmlns="http://www.w3.org/2000/svg" p-id="15445" xmlns:xlink="http://www.w3.org/1999/xlink" width="238.8671875" height="200"><path d="M276.987704 996.752023c-131.451452 0-238.01909-106.567638-238.01909-238.01909v-4.808466c0-131.451452 106.567638-238.01909 238.01909-238.019091h182.721726v-82.545341c0-131.451452 106.567638-238.01909 238.01909-238.01909h4.808467c131.451452 0 238.01909 106.567638 238.01909 238.01909v62.510064h22.43951c131.451452 0 238.01909 106.567638 238.01909 238.019091v24.843743c0 131.451452-106.567638 238.01909-238.01909 238.01909h-686.007883z" fill="#3EBBDD" p-id="15446"></path><path d="M480.085306 35.058729a315.315189 315.315189 0 0 1-4.167337 109.252366C438.71246 315.692854 269.875181 426.267547 98.793951 391.265918a317.899739 317.899739 0 0 1-44.778844-13.042965 293.236314 293.236314 0 0 0 114.040796 164.229165 236.776903 236.776903 0 0 1 108.911766-26.526706h182.721726v-82.545341c0-105.946545 69.261952-195.624444 164.950435-226.478771a292.394832 292.394832 0 0 0-144.554524-171.842571z" fill="#FF8000" p-id="15447"></path><path d="M800.309138 976.716746h40.070554v40.070554h-40.070554z" fill="#000000" p-id="15448"></path><path d="M962.995587 475.834822h-2.404233v-42.474787c0-142.290537-115.76383-258.054367-258.054367-258.054367h-4.808467c-20.936864 0-41.172494 2.784903-60.686854 7.513229C609.553266 111.79384 556.740276 52.028609 489.261463 17.247368a19.995206 19.995206 0 1 0-29.031116 20.476053 296.321746 296.321746 0 0 1-3.886844 102.340195c-29.872598 137.682423-153.470221 237.618385-293.877442 237.618385-19.915065 0-39.970378-2.043598-59.64502-6.070689a288.748412 288.748412 0 0 1-41.933834-12.241555 20.055312 20.055312 0 0 0-26.246213 23.962192 313.752437 313.752437 0 0 0 98.072681 156.715936C64.112886 586.469622 18.913301 665.007907 18.913301 753.904431v4.808467c0 142.290537 115.76383 258.054367 258.054368 258.054367h483.25088v-40.070554h-483.25088c-120.191626 0-217.983813-97.792187-217.983814-217.983813v-4.808467c0-85.00968 49.046358-158.639323 120.211662-194.562574a222.652033 222.652033 0 0 1 25.164308-10.738909c5.569807-1.983492 11.19972-3.686491 16.869703-5.209172 2.484374-0.661164 4.928678-1.342364 7.453123-1.923386 5.509701-1.262222 11.079508-2.183845 16.669351-3.005292 2.464339-0.360635 4.868572-0.841482 7.352946-1.121975 7.994076-0.881552 16.068292-1.422505 24.242685-1.422505h182.721726a20.035277 20.035277 0 0 0 20.035277-20.035277v-82.545341c0-6.8721 0.400706-13.664059 1.041835-20.395912 0.180317-1.943422 0.460811-3.886844 0.701234-5.81023a222.251327 222.251327 0 0 1 3.365927-20.23563c1.222152-5.589842 2.624621-11.099543 4.247479-16.509068l0.681199-2.404233a218.865365 218.865365 0 0 1 85.430421-114.802137l1.622857-1.081905c4.768396-3.185609 9.717109-6.15083 14.725929-8.955769 1.262222-0.701235 2.484374-1.422505 3.746597-2.103704 4.487902-2.404233 9.096016-4.548008 13.764235-6.631677 1.602822-0.72127 3.145538-1.522681 4.788431-2.20388a216.901908 216.901908 0 0 1 83.847634-16.829633h4.808467c120.191626 0 217.983813 97.792187 217.983813 217.983813v62.510064a20.035277 20.035277 0 0 0 20.035277 20.035277h22.43951c120.191626 0 217.983813 97.792187 217.983813 217.983814v24.843743c0 120.191626-97.792187 217.983813-217.983813 217.983813h-82.545341v40.070554h82.545341c142.290537 0 258.054367-115.76383 258.054367-258.054367v-24.843743c0.060106-142.290537-115.703724-258.054367-257.994261-258.054368z m-523.321434 20.035277h-162.686449c-9.096016 0-18.091855 0.500882-26.947448 1.422505-2.865045 0.300529-5.649948 0.901587-8.494957 1.302293-6.050654 0.841482-12.101307 1.662928-17.991679 2.905115-2.684727 0.581023-5.329384 1.402469-7.994075 2.063634-6.110759 1.502646-12.201484 3.065397-18.131926 4.988784-2.143775 0.701235-4.247479 1.582787-6.391253 2.344127-6.451359 2.284022-12.802542 4.728325-19.013478 7.513229-0.581023 0.260459-1.202117 0.440776-1.78314 0.701235a273.401389 273.401389 0 0 1-84.649045-110.274165 337.734664 337.734664 0 0 0 76.895393 8.915699c159.100134 0 299.166756-113.21935 333.026374-269.193982a329.780659 329.780659 0 0 0 7.453123-76.194158 275.284705 275.284705 0 0 1 96.189364 122.535754l-0.621093 0.280494c-1.702999 0.72127-3.345891 1.542716-5.028855 2.304057a257.733803 257.733803 0 0 0-39.910271 21.918593l-0.060106 0.04007a256.852251 256.852251 0 0 0-93.344356 113.119174l-0.320564 0.76134a255.590028 255.590028 0 0 0-14.485505 46.341596c-0.360635 1.662928-0.641129 3.365927-0.961694 5.04889-1.162046 6.070689-2.103704 12.201484-2.824974 18.392384a260.4586 260.4586 0 0 0-1.923386 30.213198v62.550134z" fill="#000000" p-id="15449"></path></svg>